<?xml version="1.0" encoding="utf-8" ?>
<svg xmlns="http://www.w3.org/2000/svg" xmlns:xlink="http://www.w3.org/1999/xlink" width="158" height="50">
	<defs>
		<clipPath id="clip_0">
			<rect x="-545" y="-528" width="1440" height="1756" clip-rule="evenodd"/>
		</clipPath>
	</defs>
	<g clip-path="url(#clip_0)">
		<path fill="rgb(56,165,219)" stroke="none" d="M25 0L133 0Q133.64 0 134.276 0.0291438Q134.912 0.0582875 135.543 0.116516Q136.173 0.174744 136.797 0.261937Q137.421 0.349131 138.036 0.465112Q138.651 0.581093 139.257 0.725625Q139.863 0.870158 140.459 1.04295Q141.054 1.21573 141.638 1.41643Q142.221 1.61712 142.792 1.8453Q143.362 2.07349 143.918 2.32871Q144.475 2.58392 145.016 2.86564Q145.556 3.14737 146.081 3.45502Q146.605 3.76268 147.112 4.09564Q147.619 4.4286 148.108 4.78619Q148.596 5.14378 149.065 5.52527Q149.534 5.90675 149.982 6.31136Q150.43 6.71596 150.857 7.14286Q151.284 7.56976 151.689 8.01807Q152.093 8.46639 152.475 8.93522Q152.856 9.40405 153.214 9.89243Q153.571 10.3808 153.904 10.8877Q154.237 11.3947 154.545 11.9191Q154.853 12.4436 155.134 12.9845Q155.416 13.5254 155.671 14.0817Q155.927 14.6379 156.155 15.2084Q156.383 15.7788 156.584 16.3624Q156.784 16.9459 156.957 17.5412Q157.13 18.1366 157.274 18.7426Q157.419 19.3486 157.535 19.9641Q157.651 20.5795 157.738 21.2031Q157.825 21.8266 157.883 22.4571Q157.942 23.0876 157.971 23.7236Q158 24.3597 158 25L158 25Q158 25.6403 157.971 26.2764Q157.942 26.9124 157.883 27.5429Q157.825 28.1734 157.738 28.7969Q157.651 29.4205 157.535 30.0359Q157.419 30.6514 157.274 31.2574Q157.13 31.8634 156.957 32.4588Q156.784 33.0541 156.584 33.6377Q156.383 34.2212 156.155 34.7916Q155.927 35.3621 155.671 35.9184Q155.416 36.4746 155.134 37.0155Q154.853 37.5564 154.545 38.0809Q154.237 38.6053 153.904 39.1123Q153.571 39.6192 153.214 40.1076Q152.856 40.596 152.475 41.0648Q152.093 41.5336 151.689 41.9819Q151.284 42.4302 150.857 42.8571Q150.43 43.284 149.982 43.6887Q149.534 44.0933 149.065 44.4747Q148.596 44.8562 148.108 45.2138Q147.619 45.5714 147.112 45.9044Q146.605 46.2373 146.081 46.545Q145.556 46.8526 145.016 47.1344Q144.475 47.4161 143.918 47.6713Q143.362 47.9265 142.792 48.1547Q142.221 48.3829 141.638 48.5836Q141.054 48.7843 140.459 48.9571Q139.863 49.1298 139.257 49.2744Q138.651 49.4189 138.036 49.5349Q137.421 49.6509 136.797 49.7381Q136.173 49.8253 135.543 49.8835Q134.912 49.9417 134.276 49.9709Q133.64 50 133 50L25 50Q24.3597 50 23.7236 49.9709Q23.0876 49.9417 22.4571 49.8835Q21.8266 49.8253 21.2031 49.7381Q20.5795 49.6509 19.9641 49.5349Q19.3486 49.4189 18.7426 49.2744Q18.1366 49.1298 17.5412 48.9571Q16.9459 48.7843 16.3624 48.5836Q15.7788 48.3829 15.2084 48.1547Q14.6379 47.9265 14.0817 47.6713Q13.5254 47.4161 12.9845 47.1344Q12.4436 46.8526 11.9191 46.545Q11.3947 46.2373 10.8877 45.9044Q10.3808 45.5714 9.89243 45.2138Q9.40405 44.8562 8.93522 44.4747Q8.46639 44.0933 8.01807 43.6887Q7.56976 43.284 7.14286 42.8571Q6.71596 42.4302 6.31136 41.9819Q5.90675 41.5336 5.52527 41.0648Q5.14378 40.596 4.78619 40.1076Q4.4286 39.6192 4.09564 39.1123Q3.76268 38.6053 3.45502 38.0809Q3.14737 37.5564 2.86564 37.0155Q2.58392 36.4746 2.32871 35.9184Q2.07349 35.3621 1.8453 34.7916Q1.61712 34.2212 1.41643 33.6377Q1.21573 33.0541 1.04295 32.4588Q0.870158 31.8634 0.725625 31.2574Q0.581093 30.6514 0.465112 30.0359Q0.349131 29.4205 0.261937 28.7969Q0.174744 28.1734 0.116516 27.5429Q0.0582875 26.9124 0.0291438 26.2764Q0 25.6403 0 25L0 25Q0 24.3597 0.0291438 23.7236Q0.0582875 23.0876 0.116516 22.4571Q0.174744 21.8266 0.261937 21.2031Q0.349131 20.5795 0.465112 19.9641Q0.581093 19.3486 0.725625 18.7426Q0.870158 18.1366 1.04295 17.5412Q1.21573 16.9459 1.41643 16.3624Q1.61712 15.7788 1.8453 15.2084Q2.07349 14.6379 2.32871 14.0817Q2.58392 13.5254 2.86564 12.9845Q3.14737 12.4436 3.45502 11.9191Q3.76268 11.3947 4.09564 10.8877Q4.4286 10.3808 4.78619 9.89243Q5.14378 9.40405 5.52527 8.93522Q5.90675 8.46639 6.31136 8.01807Q6.71596 7.56976 7.14286 7.14286Q7.56976 6.71596 8.01807 6.31136Q8.46639 5.90675 8.93522 5.52527Q9.40405 5.14378 9.89243 4.78619Q10.3808 4.4286 10.8877 4.09564Q11.3947 3.76268 11.9191 3.45502Q12.4436 3.14737 12.9845 2.86564Q13.5254 2.58392 14.0817 2.32871Q14.6379 2.07349 15.2084 1.8453Q15.7788 1.61712 16.3624 1.41643Q16.9459 1.21573 17.5412 1.04295Q18.1366 0.870158 18.7426 0.725625Q19.3486 0.581093 19.9641 0.465112Q20.5795 0.349131 21.2031 0.261937Q21.8266 0.174744 22.4571 0.116516Q23.0876 0.0582875 23.7236 0.0291438Q24.3597 0 25 0Z"/>
	</g>
</svg>
