<?xml version="1.0" encoding="utf-8" ?>
<svg xmlns="http://www.w3.org/2000/svg" xmlns:xlink="http://www.w3.org/1999/xlink" width="43" height="23">
	<defs>
		<clipPath id="clip_0">
			<path d="M40 0L3 0Q2.84624 0 2.69485 0.0139819Q2.54347 0.0279637 2.39569 0.0558134Q2.24791 0.0836631 2.10495 0.125154Q1.96199 0.166644 1.825 0.221437Q1.68802 0.276229 1.55814 0.343877Q1.42826 0.411525 1.30653 0.491477Q1.1848 0.571429 1.07223 0.663032Q0.959651 0.754635 0.857143 0.857143Q0.754635 0.959651 0.663032 1.07223Q0.571429 1.1848 0.491477 1.30653Q0.411525 1.42826 0.343877 1.55814Q0.276229 1.68802 0.221437 1.825Q0.166644 1.96199 0.125154 2.10495Q0.0836631 2.24791 0.0558134 2.39569Q0.0279637 2.54347 0.0139819 2.69485Q0 2.84624 0 3L0 20Q0 20.1538 0.0139819 20.3051Q0.0279637 20.4565 0.0558134 20.6043Q0.0836631 20.7521 0.125154 20.8951Q0.166644 21.038 0.221437 21.175Q0.276229 21.312 0.343877 21.4419Q0.411525 21.5717 0.491477 21.6935Q0.571429 21.8152 0.663032 21.9278Q0.754635 22.0404 0.857143 22.1429Q0.959651 22.2454 1.07223 22.337Q1.1848 22.4286 1.30653 22.5085Q1.42826 22.5885 1.55814 22.6561Q1.68802 22.7238 1.825 22.7786Q1.96199 22.8334 2.10495 22.8748Q2.24791 22.9163 2.39569 22.9442Q2.54347 22.972 2.69485 22.986Q2.84624 23 3 23L40 23Q40.1538 23 40.3051 22.986Q40.4565 22.972 40.6043 22.9442Q40.7521 22.9163 40.8951 22.8748Q41.038 22.8334 41.175 22.7786Q41.312 22.7238 41.4419 22.6561Q41.5717 22.5885 41.6935 22.5085Q41.8152 22.4286 41.9278 22.337Q42.0404 22.2454 42.1429 22.1429Q42.2454 22.0404 42.337 21.9278Q42.4286 21.8152 42.5085 21.6935Q42.5885 21.5717 42.6561 21.4419Q42.7238 21.312 42.7786 21.175Q42.8334 21.038 42.8749 20.8951Q42.9163 20.7521 42.9442 20.6043Q42.972 20.4565 42.986 20.3051Q43 20.1538 43 20L43 3Q43 2.84624 42.986 2.69485Q42.972 2.54347 42.9442 2.39569Q42.9163 2.24791 42.8749 2.10495Q42.8334 1.96199 42.7786 1.825Q42.7238 1.68802 42.6561 1.55814Q42.5885 1.42826 42.5085 1.30653Q42.4286 1.1848 42.337 1.07223Q42.2454 0.959651 42.1429 0.857143Q42.0404 0.754635 41.9278 0.663032Q41.8152 0.571429 41.6935 0.491477Q41.5717 0.411525 41.4419 0.343877Q41.312 0.276229 41.175 0.221437Q41.038 0.166644 40.8951 0.125154Q40.7521 0.0836631 40.6043 0.0558134Q40.4565 0.0279637 40.3051 0.0139819Q40.1538 0 40 0Z" clip-rule="evenodd"/>
		</clipPath>
	</defs>
	<g clip-path="url(#clip_0)">
		<path fill="none" stroke="rgb(127,139,152)" stroke-width="2" stroke-miterlimit="4" stroke-opacity="0.29803923" d="M3 0L40 0Q40.1538 0 40.3051 0.0139819Q40.4565 0.0279637 40.6043 0.0558134Q40.7521 0.0836631 40.8951 0.125154Q41.038 0.166644 41.175 0.221437Q41.312 0.276229 41.4419 0.343877Q41.5717 0.411525 41.6935 0.491477Q41.8152 0.571429 41.9278 0.663032Q42.0404 0.754635 42.1429 0.857143Q42.2454 0.959651 42.337 1.07223Q42.4286 1.1848 42.5085 1.30653Q42.5885 1.42826 42.6561 1.55814Q42.7238 1.68802 42.7786 1.825Q42.8334 1.96199 42.8749 2.10495Q42.9163 2.24791 42.9442 2.39569Q42.972 2.54347 42.986 2.69485Q43 2.84624 43 3L43 20Q43 20.1538 42.986 20.3051Q42.972 20.4565 42.9442 20.6043Q42.9163 20.7521 42.8749 20.8951Q42.8334 21.038 42.7786 21.175Q42.7238 21.312 42.6561 21.4419Q42.5885 21.5717 42.5085 21.6935Q42.4286 21.8152 42.337 21.9278Q42.2454 22.0404 42.1429 22.1429Q42.0404 22.2454 41.9278 22.337Q41.8152 22.4286 41.6935 22.5085Q41.5717 22.5885 41.4419 22.6561Q41.312 22.7238 41.175 22.7786Q41.038 22.8334 40.8951 22.8748Q40.7521 22.9163 40.6043 22.9442Q40.4565 22.972 40.3051 22.986Q40.1538 23 40 23L3 23Q2.84624 23 2.69485 22.986Q2.54347 22.972 2.39569 22.9442Q2.24791 22.9163 2.10495 22.8748Q1.96199 22.8334 1.825 22.7786Q1.68802 22.7238 1.55814 22.6561Q1.42826 22.5885 1.30653 22.5085Q1.1848 22.4286 1.07223 22.337Q0.959651 22.2454 0.857143 22.1429Q0.754635 22.0404 0.663032 21.9278Q0.571429 21.8152 0.491477 21.6935Q0.411525 21.5717 0.343877 21.4419Q0.276229 21.312 0.221437 21.175Q0.166644 21.038 0.125154 20.8951Q0.0836631 20.7521 0.0558134 20.6043Q0.0279637 20.4565 0.0139819 20.3051Q0 20.1538 0 20L0 3Q0 2.84624 0.0139819 2.69485Q0.0279637 2.54347 0.0558134 2.39569Q0.0836631 2.24791 0.125154 2.10495Q0.166644 1.96199 0.221437 1.825Q0.276229 1.68802 0.343877 1.55814Q0.411525 1.42826 0.491477 1.30653Q0.571429 1.1848 0.663032 1.07223Q0.754635 0.959651 0.857143 0.857143Q0.959651 0.754635 1.07223 0.663032Q1.1848 0.571429 1.30653 0.491477Q1.42826 0.411525 1.55814 0.343877Q1.68802 0.276229 1.825 0.221437Q1.96199 0.166644 2.10495 0.125154Q2.24791 0.0836631 2.39569 0.0558134Q2.54347 0.0279637 2.69485 0.0139819Q2.84624 0 3 0Z"/>
	</g>
</svg>
