<?xml version="1.0" encoding="utf-8" ?>
<svg xmlns="http://www.w3.org/2000/svg" xmlns:xlink="http://www.w3.org/1999/xlink" width="480" height="50">
	<defs>
		<clipPath id="clip_0">
			<rect x="-133" y="-528" width="1440" height="1756" clip-rule="evenodd"/>
		</clipPath>
	</defs>
	<g clip-path="url(#clip_0)">
		<path fill="rgb(255,255,255)" stroke="none" d="M25 0L455 0Q455.64 0 456.276 0.0291438Q456.913 0.0582875 457.543 0.116516Q458.173 0.174744 458.797 0.261937Q459.421 0.349131 460.036 0.465112Q460.651 0.581093 461.257 0.725625Q461.863 0.870158 462.459 1.04295Q463.054 1.21573 463.638 1.41643Q464.221 1.61712 464.792 1.8453Q465.362 2.07349 465.918 2.32871Q466.475 2.58392 467.016 2.86564Q467.556 3.14737 468.081 3.45502Q468.605 3.76268 469.112 4.09564Q469.619 4.4286 470.108 4.78619Q470.596 5.14378 471.065 5.52527Q471.534 5.90675 471.982 6.31136Q472.43 6.71596 472.857 7.14286Q473.284 7.56976 473.689 8.01807Q474.093 8.46639 474.475 8.93522Q474.856 9.40405 475.214 9.89243Q475.572 10.3808 475.904 10.8877Q476.237 11.3947 476.545 11.9191Q476.853 12.4436 477.134 12.9845Q477.416 13.5254 477.671 14.0817Q477.927 14.6379 478.155 15.2084Q478.383 15.7788 478.584 16.3624Q478.784 16.9459 478.957 17.5412Q479.13 18.1366 479.274 18.7426Q479.419 19.3486 479.535 19.9641Q479.651 20.5795 479.738 21.2031Q479.825 21.8266 479.884 22.4571Q479.942 23.0876 479.971 23.7236Q480 24.3597 480 25L480 25Q480 25.6403 479.971 26.2764Q479.942 26.9124 479.884 27.5429Q479.825 28.1734 479.738 28.7969Q479.651 29.4205 479.535 30.0359Q479.419 30.6514 479.274 31.2574Q479.13 31.8634 478.957 32.4588Q478.784 33.0541 478.584 33.6377Q478.383 34.2212 478.155 34.7916Q477.927 35.3621 477.671 35.9184Q477.416 36.4746 477.134 37.0155Q476.853 37.5564 476.545 38.0809Q476.237 38.6053 475.904 39.1123Q475.571 39.6192 475.214 40.1076Q474.856 40.596 474.475 41.0648Q474.093 41.5336 473.689 41.9819Q473.284 42.4302 472.857 42.8571Q472.43 43.284 471.982 43.6887Q471.534 44.0933 471.065 44.4747Q470.596 44.8562 470.108 45.2138Q469.619 45.5714 469.112 45.9044Q468.605 46.2373 468.081 46.545Q467.556 46.8526 467.016 47.1344Q466.475 47.4161 465.918 47.6713Q465.362 47.9265 464.792 48.1547Q464.221 48.3829 463.638 48.5836Q463.054 48.7843 462.459 48.9571Q461.863 49.1298 461.257 49.2744Q460.651 49.4189 460.036 49.5349Q459.421 49.6509 458.797 49.7381Q458.173 49.8253 457.543 49.8835Q456.913 49.9417 456.276 49.9709Q455.64 50 455 50L25 50Q24.3597 50 23.7236 49.9709Q23.0876 49.9417 22.4571 49.8835Q21.8266 49.8253 21.2031 49.7381Q20.5795 49.6509 19.9641 49.5349Q19.3486 49.4189 18.7426 49.2744Q18.1366 49.1298 17.5412 48.9571Q16.9459 48.7843 16.3624 48.5836Q15.7788 48.3829 15.2084 48.1547Q14.6379 47.9265 14.0817 47.6713Q13.5254 47.4161 12.9845 47.1344Q12.4436 46.8526 11.9191 46.545Q11.3947 46.2373 10.8877 45.9044Q10.3808 45.5714 9.89243 45.2138Q9.40405 44.8562 8.93522 44.4747Q8.46639 44.0933 8.01807 43.6887Q7.56976 43.284 7.14286 42.8571Q6.71596 42.4302 6.31136 41.9819Q5.90675 41.5336 5.52527 41.0648Q5.14378 40.596 4.78619 40.1076Q4.4286 39.6192 4.09564 39.1123Q3.76268 38.6053 3.45502 38.0809Q3.14737 37.5564 2.86564 37.0155Q2.58392 36.4746 2.32871 35.9184Q2.07349 35.3621 1.8453 34.7916Q1.61712 34.2212 1.41643 33.6377Q1.21573 33.0541 1.04295 32.4588Q0.870158 31.8634 0.725625 31.2574Q0.581093 30.6514 0.465112 30.0359Q0.349131 29.4205 0.261937 28.7969Q0.174744 28.1734 0.116516 27.5429Q0.0582875 26.9124 0.0291438 26.2764Q0 25.6403 0 25L0 25Q0 24.3597 0.0291438 23.7236Q0.0582875 23.0876 0.116516 22.4571Q0.174744 21.8266 0.261937 21.2031Q0.349131 20.5795 0.465112 19.9641Q0.581093 19.3486 0.725625 18.7426Q0.870158 18.1366 1.04295 17.5412Q1.21573 16.9459 1.41643 16.3624Q1.61712 15.7788 1.8453 15.2084Q2.07349 14.6379 2.32871 14.0817Q2.58392 13.5254 2.86564 12.9845Q3.14737 12.4436 3.45502 11.9191Q3.76268 11.3947 4.09564 10.8877Q4.4286 10.3808 4.78619 9.89243Q5.14378 9.40405 5.52527 8.93522Q5.90675 8.46639 6.31136 8.01807Q6.71596 7.56976 7.14286 7.14286Q7.56976 6.71596 8.01807 6.31136Q8.46639 5.90675 8.93522 5.52527Q9.40405 5.14378 9.89243 4.78619Q10.3808 4.4286 10.8877 4.09564Q11.3947 3.76268 11.9191 3.45502Q12.4436 3.14737 12.9845 2.86564Q13.5254 2.58392 14.0817 2.32871Q14.6379 2.07349 15.2084 1.8453Q15.7788 1.61712 16.3624 1.41643Q16.9459 1.21573 17.5412 1.04295Q18.1366 0.870158 18.7426 0.725625Q19.3486 0.581093 19.9641 0.465112Q20.5795 0.349131 21.2031 0.261937Q21.8266 0.174744 22.4571 0.116516Q23.0876 0.0582875 23.7236 0.0291438Q24.3597 0 25 0Z"/>
	</g>
</svg>
