<?xml version="1.0" encoding="utf-8" ?>
<svg xmlns="http://www.w3.org/2000/svg" xmlns:xlink="http://www.w3.org/1999/xlink" width="11" height="11">
	<defs>
		<clipPath id="clip_0">
			<rect x="-289" y="-1286" width="1440" height="1756" clip-rule="evenodd"/>
		</clipPath>
	</defs>
	<g clip-path="url(#clip_0)">
		<path fill="rgb(0,24,49)" stroke="none" d="M1.50914 0C0.596767 0 0 0.647702 0 1.49945C0 2.33264 0.579501 3 1.47374 3L1.49156 3C2.4216 3 3 2.33277 3 1.49945C2.98247 0.647702 2.4216 0 1.50914 0ZM11 6.51804L11 11L8.70733 11L8.70733 6.81822C8.70733 5.76772 8.37572 5.0508 7.54585 5.0508C6.91235 5.0508 6.53535 5.53395 6.36949 6.00132C6.30901 6.1684 6.29344 6.40096 6.29344 6.63484L6.29344 11L4 11C4 11 4.03089 3.91743 4 3.18363L6.29322 3.18363L6.29322 4.29157C6.28857 4.29985 6.28253 4.30879 6.27815 4.31682L6.29322 4.31682L6.29322 4.29157C6.5979 3.75974 7.14202 3 8.35993 3C9.86883 2.99997 11 4.11716 11 6.51804ZM2 11L0 11L0 4L2 4L2 11Z" fill-rule="evenodd"/>
	</g>
</svg>
