<?xml version="1.0" encoding="UTF-8" standalone="no"?>
<svg
   xmlns:dc="http://purl.org/dc/elements/1.1/"
   xmlns:cc="http://creativecommons.org/ns#"
   xmlns:rdf="http://www.w3.org/1999/02/22-rdf-syntax-ns#"
   xmlns:svg="http://www.w3.org/2000/svg"
   xmlns="http://www.w3.org/2000/svg"
   xmlns:sodipodi="http://sodipodi.sourceforge.net/DTD/sodipodi-0.dtd"
   xmlns:inkscape="http://www.inkscape.org/namespaces/inkscape"
   width="220"
   height="46"
   version="1.1"
   id="svg839"
   sodipodi:docname="ReadWhitepaper-button.svg"
   inkscape:version="0.92.2 (5c3e80d, 2017-08-06)">
  <metadata
     id="metadata843">
    <rdf:RDF>
      <cc:Work
         rdf:about="">
        <dc:format>image/svg+xml</dc:format>
        <dc:type
           rdf:resource="http://purl.org/dc/dcmitype/StillImage" />
        <dc:title />
      </cc:Work>
    </rdf:RDF>
  </metadata>
  <sodipodi:namedview
     pagecolor="#ffffff"
     bordercolor="#666666"
     borderopacity="1"
     objecttolerance="10"
     gridtolerance="10"
     guidetolerance="10"
     inkscape:pageopacity="0"
     inkscape:pageshadow="2"
     inkscape:window-width="1920"
     inkscape:window-height="1001"
     id="namedview841"
     showgrid="false"
     inkscape:zoom="6.5045455"
     inkscape:cx="110"
     inkscape:cy="23"
     inkscape:window-x="-9"
     inkscape:window-y="-9"
     inkscape:window-maximized="1"
     inkscape:current-layer="svg839" />
  <defs
     id="defs833">
    <clipPath
       id="clip_0">
      <rect
         x="-1083"
         y="-1438"
         width="1440"
         height="1756"
         clip-rule="evenodd"
         id="rect830" />
    </clipPath>
    <clipPath
       id="clip_0-8">
      <rect
         style="clip-rule:evenodd"
         x="-1132"
         y="-1450"
         width="1440"
         height="1756"
         id="rect860" />
    </clipPath>
  </defs>
  <g
     clip-path="url(#clip_0)"
     id="g837">
    <path
       fill="rgb(56,165,219)"
       stroke="none"
       d="M22.9999 -1.4552e-11L197 -1.4552e-11Q197.589 -1.4552e-11 198.174 0.0268123Q198.76 0.0536245 199.34 0.107194Q199.92 0.160764 200.493 0.240982Q201.067 0.3212 201.633 0.427903Q202.199 0.534606 202.757 0.667575Q203.314 0.800545 203.862 0.95951Q204.41 1.11848 204.947 1.30311Q205.484 1.48775 206.008 1.69768Q206.533 1.90761 207.045 2.14241Q207.557 2.37721 208.054 2.63639Q208.552 2.89558 209.034 3.17862Q209.517 3.46167 209.983 3.76799Q210.45 4.07432 210.899 4.4033Q211.348 4.73228 211.78 5.08324Q212.211 5.43421 212.623 5.80645Q213.036 6.17868 213.429 6.57143Q213.821 6.96417 214.194 7.37663Q214.566 7.78908 214.917 8.2204Q215.268 8.65172 215.597 9.10103Q215.926 9.55034 216.232 10.0167Q216.538 10.4831 216.821 10.9656Q217.104 11.4481 217.364 11.9457Q217.623 12.4434 217.858 12.9551Q218.092 13.4669 218.302 13.9917Q218.512 14.5165 218.697 15.0534Q218.882 15.5902 219.041 16.1379Q219.199 16.6857 219.332 17.2432Q219.465 17.8007 219.572 18.3669Q219.679 18.9331 219.759 19.5068Q219.839 20.0805 219.893 20.6605Q219.946 21.2406 219.973 21.8257Q220 22.4109 220 23L220 23Q220 23.5891 219.973 24.1743Q219.946 24.7595 219.893 25.3395Q219.839 25.9195 219.759 26.4932Q219.679 27.0669 219.572 27.6331Q219.465 28.1993 219.332 28.7568Q219.199 29.3143 219.041 29.8621Q218.882 30.4098 218.697 30.9466Q218.512 31.4835 218.302 32.0083Q218.092 32.5331 217.858 33.0449Q217.623 33.5566 217.364 34.0543Q217.104 34.5519 216.821 35.0344Q216.538 35.5169 216.232 35.9833Q215.926 36.4497 215.597 36.899Q215.268 37.3483 214.917 37.7796Q214.566 38.2109 214.194 38.6234Q213.821 39.0358 213.429 39.4286Q213.036 39.8213 212.623 40.1936Q212.211 40.5658 211.78 40.9168Q211.348 41.2677 210.899 41.5967Q210.45 41.9257 209.983 42.232Q209.517 42.5383 209.034 42.8214Q208.552 43.1044 208.054 43.3636Q207.557 43.6228 207.045 43.8576Q206.533 44.0924 206.008 44.3023Q205.484 44.5123 204.947 44.6969Q204.41 44.8815 203.862 45.0405Q203.314 45.1995 202.757 45.3324Q202.199 45.4654 201.633 45.5721Q201.067 45.6788 200.493 45.759Q199.92 45.8392 199.34 45.8928Q198.76 45.9464 198.174 45.9732Q197.589 46 197 46L22.9999 46Q22.4108 46 21.8257 45.9732Q21.2405 45.9464 20.6605 45.8928Q20.0805 45.8392 19.5068 45.759Q18.9331 45.6788 18.3669 45.5721Q17.8007 45.4654 17.2432 45.3324Q16.6856 45.1995 16.1379 45.0405Q15.5902 44.8815 15.0533 44.6969Q14.5165 44.5123 13.9917 44.3023Q13.4668 44.0924 12.9551 43.8576Q12.4433 43.6228 11.9457 43.3636Q11.4481 43.1044 10.9656 42.8214Q10.4831 42.5383 10.0167 42.232Q9.55032 41.9257 9.10101 41.5967Q8.6517 41.2677 8.22038 40.9168Q7.78906 40.5658 7.37661 40.1936Q6.96416 39.8213 6.57141 39.4286Q6.17867 39.0358 5.80643 38.6234Q5.4342 38.2109 5.08323 37.7796Q4.73227 37.3483 4.40329 36.899Q4.0743 36.4497 3.76798 35.9833Q3.46166 35.5169 3.17861 35.0344Q2.89557 34.5519 2.63639 34.0543Q2.3772 33.5566 2.1424 33.0449Q1.90761 32.5331 1.69768 32.0083Q1.48774 31.4835 1.30311 30.9466Q1.11847 30.4098 0.959508 29.8621Q0.800543 29.3143 0.667573 28.7568Q0.534604 28.1993 0.427902 27.6331Q0.321199 27.0669 0.240982 26.4932Q0.160764 25.9195 0.107194 25.3395Q0.0536244 24.7595 0.0268122 24.1743Q0 23.5891 0 23L0 23Q0 22.4109 0.0268122 21.8257Q0.0536244 21.2406 0.107194 20.6605Q0.160764 20.0805 0.240982 19.5068Q0.321199 18.9331 0.427902 18.3669Q0.534604 17.8008 0.667574 17.2432Q0.800543 16.6857 0.959508 16.1379Q1.11847 15.5902 1.30311 15.0534Q1.48774 14.5165 1.69768 13.9917Q1.90761 13.4669 2.1424 12.9551Q2.3772 12.4434 2.63639 11.9457Q2.89557 11.4481 3.17861 10.9656Q3.46166 10.4831 3.76798 10.0167Q4.0743 9.55034 4.40329 9.10103Q4.73227 8.65172 5.08323 8.2204Q5.4342 7.78908 5.80643 7.37663Q6.17867 6.96417 6.57141 6.57143Q6.96416 6.17868 7.37661 5.80645Q7.78906 5.43421 8.22038 5.08324Q8.6517 4.73228 9.10101 4.4033Q9.55032 4.07432 10.0167 3.76799Q10.4831 3.46167 10.9656 3.17862Q11.4481 2.89558 11.9457 2.63639Q12.4433 2.37721 12.9551 2.14241Q13.4668 1.90761 13.9917 1.69768Q14.5165 1.48775 15.0533 1.30311Q15.5902 1.11848 16.1379 0.95951Q16.6856 0.800545 17.2432 0.667575Q17.8007 0.534606 18.3669 0.427903Q18.9331 0.3212 19.5068 0.240982Q20.0805 0.160764 20.6605 0.107194Q21.2405 0.0536245 21.8257 0.0268123Q22.4108 -1.4552e-11 22.9999 -1.4552e-11Z"
       id="path835" />
  </g>
  <g
     transform="translate(41.681222,9.2525414)"
     clip-path="url(#clip_0-8)"
     id="g867">
    <text
       style="font-size:16px;font-family:'Segoe UI';fill:#fffefe;stroke:none"
       font-size="16"
       x="7"
       y="17"
       id="text865">Read Whitepaper</text>
  </g>
</svg>
